<svg width="10" height="17" viewBox="0 0 10 17" fill="none" xmlns="http://www.w3.org/2000/svg">
<path d="M8.97567 0.003396L6.85912 0C4.48124 0 2.94455 1.57659 2.94455 4.01679V5.86879H0.81645C0.632557 5.86879 0.483643 6.01788 0.483643 6.20177V8.88512C0.483643 9.06901 0.632727 9.21793 0.81645 9.21793H2.94455V15.9889C2.94455 16.1728 3.09347 16.3217 3.27736 16.3217H6.05393C6.23782 16.3217 6.38674 16.1726 6.38674 15.9889V9.21793H8.87498C9.05888 9.21793 9.20779 9.06901 9.20779 8.88512L9.20881 6.20177C9.20881 6.11347 9.17366 6.02891 9.11134 5.96643C9.04903 5.90394 8.96413 5.86879 8.87583 5.86879H6.38674V4.29882C6.38674 3.54423 6.56655 3.16116 7.54952 3.16116L8.97533 3.16066C9.15906 3.16066 9.30797 3.01157 9.30797 2.82785V0.336204C9.30797 0.15265 9.15923 0.0037356 8.97567 0.003396Z" fill="white"/>
</svg>
