<svg width="14" height="14" viewBox="0 0 14 14" fill="none" xmlns="http://www.w3.org/2000/svg">
<path fill-rule="evenodd" clip-rule="evenodd" d="M9.50786 0H3.52894C1.58305 0 0 1.58305 0 3.52894V9.50796C0 11.4537 1.58305 13.0368 3.52894 13.0368H9.50796C11.4537 13.0368 13.0368 11.4537 13.0368 9.50796V3.52894C13.0368 1.58305 11.4537 0 9.50786 0ZM6.5184 10.0831C4.55281 10.0831 2.95375 8.48399 2.95375 6.5184C2.95375 4.55281 4.55281 2.95375 6.5184 2.95375C8.48399 2.95375 10.0831 4.55281 10.0831 6.5184C10.0831 8.48399 8.48399 10.0831 6.5184 10.0831ZM9.11498 2.7411C9.11498 3.32196 9.58743 3.79441 10.1683 3.79441C10.7492 3.79441 11.2217 3.32196 11.2217 2.7411C11.2217 2.16023 10.7492 1.68769 10.1683 1.68769C9.58743 1.68769 9.11498 2.16023 9.11498 2.7411Z" fill="white"/>
<path d="M6.5184 3.71802C4.97433 3.71802 3.71802 4.97423 3.71802 6.5184C3.71802 8.06246 4.97433 9.31877 6.5184 9.31877C8.06256 9.31877 9.31877 8.06246 9.31877 6.5184C9.31877 4.97423 8.06256 3.71802 6.5184 3.71802Z" fill="white"/>
</svg>
