<svg width="14" height="12" viewBox="0 0 14 12" fill="none" xmlns="http://www.w3.org/2000/svg">
<path d="M13.7255 1.37906C13.2151 1.60296 12.6712 1.75136 12.1042 1.82342C12.6875 1.47514 13.1327 0.927833 13.342 0.268152C12.7982 0.592416 12.1977 0.82146 11.5577 0.949279C11.0413 0.399402 10.3053 0.0588379 9.50233 0.0588379C7.94449 0.0588379 6.69032 1.3233 6.69032 2.87342C6.69032 3.09646 6.70919 3.31092 6.75551 3.51509C4.41618 3.40099 2.3462 2.27979 0.955637 0.571828C0.712868 0.993029 0.570466 1.47514 0.570466 1.99413C0.570466 2.96864 1.0723 3.83249 1.82034 4.33261C1.36826 4.32403 0.924755 4.19278 0.54902 3.98604C0.54902 3.99462 0.54902 4.00577 0.54902 4.01693C0.54902 5.38433 1.52439 6.52011 2.80343 6.78175C2.57439 6.84438 2.32475 6.8744 2.06569 6.8744C1.88554 6.8744 1.70368 6.86411 1.53297 6.82636C1.89755 7.9407 2.93211 8.75994 4.16225 8.78653C3.2049 9.53543 1.98934 9.98666 0.673407 9.98666C0.442647 9.98666 0.221324 9.97636 0 9.94805C1.24645 10.7519 2.72365 11.2108 4.31667 11.2108C9.49461 11.2108 12.3255 6.92158 12.3255 3.20369C12.3255 3.0793 12.3212 2.95921 12.3152 2.83997C12.8737 2.44364 13.3429 1.94867 13.7255 1.37906Z" fill="white"/>
</svg>
